<?xml version="1.0" encoding="UTF-8"?>
<!DOCTYPE svg PUBLIC "-//W3C//DTD SVG 1.0//EN" "http://www.w3.org/TR/2001/REC-SVG-20010904/DTD/svg10.dtd">
<!-- Creator: CorelDRAW X7 -->
<svg xmlns="http://www.w3.org/2000/svg" xml:space="preserve" width="460.498mm" height="86.9182mm" version="1.0" style="shape-rendering:geometricPrecision; text-rendering:geometricPrecision; image-rendering:optimizeQuality; fill-rule:evenodd; clip-rule:evenodd"
viewBox="0 0 32105873 6059923"
 xmlns:xlink="http://www.w3.org/1999/xlink">
 <defs>
  <style type="text/css">
   <![CDATA[
    .fil1 {fill:#C5E319}
    .fil0 {fill:#373435;fill-rule:nonzero}
   ]]>
  </style>
 </defs>
 <g id="Слой_x0020_1">
  <metadata id="CorelCorpID_0Corel-Layer"/>
  <g id="_1884330095248">
   <path class="fil0" d="M25851613 6007877c-65599,34699 -147485,52046 -245449,52046 -126534,0 -227677,-40626 -303636,-122087 -76176,-81460 -114264,-188320 -114264,-320565 0,-141977 42954,-256875 128438,-344471 85483,-87813 194030,-131617 325431,-131617 84215,0 154039,12277 209480,36609l0 111085c-63689,-35550 -133939,-53322 -210749,-53322 -101986,0 -184723,34065 -248203,102203 -63473,68130 -95216,159330 -95216,273378 0,108338 29624,194665 88872,258779 59457,64324 137111,96485 233596,96485 89081,0 166526,-19891 231700,-59457l0 100934z"/>
   <polygon id="1" class="fil0" points="26508269,6045114 26037256,6045114 26037256,5156207 26488587,5156207 26488587,5250371 26141362,5250371 26141362,5546178 26462561,5546178 26462561,5639700 26141362,5639700 26141362,5950958 26508269,5950958 "/>
   <polygon id="2" class="fil0" points="27209574,5250371 26952908,5250371 26952908,6045114 26848802,6045114 26848802,5250371 26592777,5250371 26592777,5156207 27209574,5156207 "/>
   <path id="3" class="fil0" d="M27353748 6045114l0 -888907 104106 0 0 376850 168638 0c88446,0 157218,21369 206308,64114 49299,42738 73847,103681 73847,182603 0,81886 -25817,146426 -77445,194031 -51627,47611 -122093,71309 -211383,71309l-264071 0zm104106 -417901l0 323745 146209 0c61577,0 109188,-14600 142619,-43380 33431,-28990 50359,-69615 50359,-121668 0,-105793 -64324,-158697 -192978,-158697l-146209 0z"/>
   <path id="4" class="fil0" d="M29125719 6045114l-115316 0 -94164 -249255 -377059 0 -88655 249255 -115742 0 340874 -888907 107912 0 342150 888907zm-243754 -342784l-139440 -378753c-4448,-12480 -9098,-32371 -13546,-59457l-2538 0c-4023,25182 -8889,44857 -14174,59457l-138387 378753 308085 0z"/>
   <polygon id="5" class="fil0" points="29935355,6045114 29829980,6045114 29829980,5252909 29365744,5252909 29365744,6045114 29261004,6045114 29261004,5156207 29935355,5156207 "/>
   <polygon id="6" class="fil0" points="30696117,5250371 30439450,5250371 30439450,6045114 30335345,6045114 30335345,5250371 30079319,5250371 30079319,5156207 30696117,5156207 "/>
   <polygon id="7" class="fil0" points="31311304,6045114 30840290,6045114 30840290,5156207 31291622,5156207 31291622,5250371 30944396,5250371 30944396,5546178 31265595,5546178 31265595,5639700 30944396,5639700 30944396,5950958 31311304,5950958 "/>
   <path id="8" class="fil0" d="M32105706 6045114l-145150 0 -343419 -406683c-12696,-15233 -20735,-25601 -23489,-30892l-2538 0 0 437575 -104105 0 0 -888907 104105 0 0 417685 2538 0c5717,-9099 13547,-19041 23489,-30259l332201 -387426 129707 0 -381291 426365 407952 462542z"/>
   <g>
    <path class="fil1" d="M8995888 3278770c39831,135766 112862,245219 219750,328374 106887,83155 227753,124380 361887,124380 97552,0 191855,-18476 281494,-56117 89660,-36987 160697,-86739 212478,-148573l585605 0c-44460,137892 -120831,265109 -229706,381667 -108937,116565 -236357,208281 -383773,275798 -146767,67530 -295472,100933 -445509,100933 -209857,0 -403706,-55434 -582321,-166324 -178609,-111586 -320049,-262272 -424273,-452774 -104232,-190482 -156696,-397299 -156696,-621936 0,-228848 51781,-441368 154702,-637553 102920,-196150 244340,-351123 424280,-465554 179256,-114424 376445,-172006 592263,-172006 204509,0 393729,56871 566362,170577 173261,113734 310727,266559 412323,457759 101575,191200 152024,395179 152024,612698 0,39782 -9294,129330 -27212,268651l-1713678 0zm1207735 -502526c-42487,-139300 -119520,-249493 -229712,-331232 -110904,-81740 -234378,-122219 -371830,-122219 -134148,0 -260278,41909 -377791,125063 -118210,83901 -196540,193361 -236385,328388l1215718 0zm2840463 -930383l0 2362596 -486038 0 0 -251598c-113531,218913 -303427,328373 -570329,328373 -133485,0 -260299,-27721 -380468,-83176 -120169,-55434 -225760,-137871 -316688,-245915 -91654,-103758 -149431,-213253 -173965,-328395 -24590,-115135 -37189,-263680 -37189,-447050l0 -1334835 529836 0 0 1160667c0,224596 22596,385969 68388,481918 35843,77473 87645,137174 155364,179814 67740,41944 142117,63264 223103,63264 179926,0 301434,-67517 364531,-201853 62385,-135047 93598,-309179 93598,-523143l0 -1160667 529857 0zm426253 0l482036 0 0 213928c62414,-101631 130795,-175562 206490,-221772 75004,-46182 166637,-68932 274884,-68932l39831 0 0 549441c-124819,0 -232404,37649 -322008,111566 -67740,59025 -110241,125809 -126793,200451 -16635,74628 -24590,175562 -24590,302787l0 1275127 -529850 0 0 -2362596zm3453294 1186290c0,227447 -53113,437101 -158669,629716 -105591,192622 -249004,344744 -430255,456323 -181264,111608 -377791,167042 -589586,167042 -208497,0 -401697,-56152 -580996,-169168 -179291,-113016 -322022,-265842 -427578,-459168 -105590,-193326 -158724,-401572 -158724,-624745 0,-231031 53134,-442847 159373,-636891 106218,-194024 250977,-346835 434257,-458436 182561,-111587 381771,-167739 597519,-167739 211851,0 405721,56871 582321,171295 176615,114445 316047,268686 418968,462723 102237,194045 153370,403720 153370,629048zm-1633355 -492585c-121480,130780 -182561,294971 -182561,492585 0,124380 27839,240205 83622,348229 55790,107355 132140,192650 229747,255914 97594,63243 205158,95230 323333,95230 121515,0 232404,-30558 331985,-91674 99616,-61138 177305,-145004 233067,-251619 56417,-107355 84326,-226011 84326,-356080 0,-127253 -28537,-245951 -86334,-354693 -57094,-109460 -135424,-195453 -235026,-259428 -99595,-63284 -208476,-95237 -328018,-95237 -81663,0 -163319,19877 -245002,59673 -81670,39099 -151362,91696 -209139,157100zm1932153 -693705l486038 0 0 306321c168631,-255154 407659,-383097 717061,-383097 107571,0 207835,12801 300772,39106 92957,25552 180602,66798 262955,123662 82332,56152 161346,130062 236350,220329 205158,228158 307430,518876 307430,874251 0,164184 -27212,323424 -81684,476236 -54437,152812 -131457,288563 -231707,405832 -99581,117297 -217791,208992 -354560,276509 -136790,66819 -283502,100222 -439556,100222 -279513,0 -503949,-110889 -673263,-332633l0 1044835 -529836 0 0 -3151573zm497995 1180572c0,218203 69015,393785 207151,525988 57073,54012 123467,97364 199162,130069 75709,32685 150051,49034 223103,49034 122164,0 233729,-31241 333958,-94533 100279,-62532 178630,-148545 235061,-256611 56431,-108707 84340,-228137 84340,-358213 0,-123669 -27909,-238812 -83678,-346124 -55748,-108045 -132119,-193361 -229064,-257315 -96925,-63982 -203847,-95935 -320691,-95935 -120817,0 -231044,31241 -330674,93822 -98918,62546 -177249,147827 -233701,255872 -57128,108031 -84967,226011 -84967,353946zm2130631 -1969543l529857 0 0 968074c57763,-83155 139412,-147130 245685,-190489 106226,-43372 213106,-65390 320677,-65390 118823,0 237019,28439 354532,84584 117541,56864 215797,133618 294824,230996 64387,78184 111538,162057 142069,250210 30551,88851 49793,176956 57149,265828 7948,88119 11915,197579 11915,328353l0 1279401 -529836 0 0 -1156429c0,-226729 -28550,-404417 -85651,-534494 -57114,-130069 -178608,-194741 -364523,-194741 -158668,0 -279521,68214 -363184,203958 -55783,100237 -83657,277925 -83657,533803l0 1147903 -529857 0 0 -3151567zm4625834 3151567l-486672 0 0 -319150c-83008,120141 -194546,216076 -333958,287873 -140109,71791 -280845,108052 -422321,108052 -167300,0 -320028,-34832 -457446,-103792 -137418,-69643 -255648,-167007 -354567,-292816 -183942,-235284 -275568,-522432 -275568,-862191 0,-335463 94283,-618380 282875,-847946 219087,-272939 492682,-409402 820003,-409402 313383,0 560380,135765 740982,407973l0 -331197 486672 0 0 2362596zm-1139368 -1885664c-193201,0 -351869,68946 -475413,206120 -124150,137857 -185880,311313 -185880,519559 0,127218 29220,243092 88328,347581 58405,103757 138101,186215 238344,245923 99581,59722 208498,89548 326024,89548 125482,0 237020,-30558 335290,-91674 98270,-61138 174606,-145722 229044,-254464 54493,-108763 81690,-229587 81690,-363219 0,-130063 -27197,-248761 -81007,-356074 -54437,-106622 -130146,-190523 -227071,-251639 -96945,-61103 -206524,-91661 -329349,-91661zm1533111 -476932l482022 0 0 213928c62427,-101631 130815,-175562 206489,-221772 75040,-46182 166673,-68932 274906,-68932l39845 0 0 549441c-124855,0 -232418,37649 -322022,111566 -67754,59025 -110241,125809 -126828,200451 -16621,74628 -24569,175562 -24569,302787l0 1275127 -529843 0 0 -2362596zm1255536 0l486059 0 0 217484c47130,-98807 126130,-172006 236998,-221075 110227,-49020 225098,-73185 344639,-73185 115519,0 226388,25594 331985,77473 104908,51181 191207,123683 256918,216787 12619,12082 29903,36247 51802,71072 17953,-31269 36526,-55434 56431,-71072 73701,-95949 167983,-168478 283544,-218914 114856,-50470 235701,-75346 361183,-75346 288138,0 512587,98061 673250,294978 65746,76036 114877,156353 146732,240931 32524,83900 54444,172005 65084,264433 10625,91675 15938,196171 15938,312721l0 1326309 -529850 0 0 -1258778c0,-217505 -26529,-368170 -79662,-452070 -31897,-54005 -78379,-96667 -139447,-127902 -61758,-31311 -125495,-46914 -191227,-46914 -165327,0 -287504,68214 -367166,203958 -36526,66841 -59101,145025 -69050,235284 -9942,89555 -14607,196903 -14607,320551l0 1125871 -529857 0 0 -1258778c0,-199008 -27874,-344026 -83656,-434989 -36513,-61137 -86321,-108742 -148727,-142145 -61744,-33403 -128159,-49752 -197851,-49752 -129469,0 -225759,37635 -289497,112298 -63076,74628 -102258,163465 -117513,267243 -15297,103060 -22582,229566 -22582,380252l0 1125871 -529871 0 0 -2362596zm5979703 2362596l-486700 0 0 -319150c-82981,120141 -194554,216076 -333979,287873 -140074,71791 -280832,108052 -422272,108052 -167314,0 -320042,-34832 -457481,-103792 -137432,-69643 -255614,-167007 -354546,-292816 -183942,-235284 -275554,-522432 -275554,-862191 0,-335463 94254,-618380 282860,-847946 219102,-272939 492648,-409402 819982,-409402 313370,0 560387,135765 740990,407973l0 -331197 486700 0 0 2362596zm-1139383 -1885664c-193200,0 -351904,68946 -475398,206120 -124150,137857 -185880,311313 -185880,519559 0,127218 29170,243092 88293,347581 58425,103757 138101,186215 238365,245923 99595,59722 208490,89548 326003,89548 125482,0 237054,-30558 335304,-91674 98256,-61138 174627,-145722 229071,-254464 54437,-108763 81684,-229587 81684,-363219 0,-130063 -27247,-248761 -81042,-356074 -54438,-106622 -130112,-190523 -227057,-251639 -96959,-61103 -206496,-91661 -329343,-91661z"/>
    <path class="fil1" d="M5897991 3603686c226987,24269 453242,43177 681351,54793 54884,-224714 83943,-459126 83943,-700106 0,-223131 -24946,-440657 -72160,-649914 -203101,449205 -435923,882318 -693134,1295227zm-53858 -2684639c207409,216759 381932,465087 515954,736597 -277819,657807 -618826,1283033 -1015295,1867829 -285321,-47953 -567010,-107166 -844495,-177102 545683,-743179 999211,-1557918 1343836,-2427324zm428616 3503931c-508961,890726 -1470231,1493782 -2567851,1493782 -675013,0 -1337331,-234287 -1860320,-661091 -397647,292643 -818065,560687 -1255864,798655 -202731,-168450 -378111,-358841 -588714,-530714 456058,-247380 893027,-526692 1307421,-835195 -352671,-487265 -560882,-1085106 -560882,-1730042 0,-1629415 1328930,-2958373 2958359,-2958373 664179,0 1278418,220810 1773066,592835 -647502,1588517 -1679014,3026754 -2981945,4143540 344019,245728 788566,373350 1208879,373350 660909,0 1253863,-300625 1649104,-772161 302013,41483 607888,70466 918747,85414zm-4335479 -239648c1041615,-890650 1913914,-2004718 2546085,-3219293 1464,-2782 2858,-5870 4434,-9168 -3604,-1408 -6630,-2663 -10109,-4009 -240025,-92874 -500637,-143839 -772782,-143839 -1184972,0 -2151338,966394 -2151338,2151352 0,454699 141901,878045 383710,1224957z"/>
   </g>
  </g>
 </g>
</svg>
